<svg xmlns="http://www.w3.org/2000/svg" version="1.1" xmlns:xlink="http://www.w3.org/1999/xlink" xmlns:svgjs="http://svgjs.dev/svgjs" width="1500" height="1738" viewBox="0 0 1500 1738"><g transform="matrix(1,0,0,1,-0.959448505598175,-2.8019316833836)"><svg viewBox="0 0 214 248" data-background-color="#ffffff" preserveAspectRatio="xMidYMid meet" height="1738" width="1500" xmlns="http://www.w3.org/2000/svg" xmlns:xlink="http://www.w3.org/1999/xlink"><g id="tight-bounds" transform="matrix(1,0,0,1,0.13688132013200516,0.40002634420793015)"><svg viewBox="0 0 213.726237359736 247.2" height="247.2" width="213.726237359736"><g><svg viewBox="0 0 213.726237359736 247.2" height="247.2" width="213.726237359736"><g><svg viewBox="0 0 213.726237359736 247.2" height="247.2" width="213.726237359736"><g id="textblocktransform"><svg viewBox="0 0 213.726237359736 247.2" height="247.2" width="213.726237359736" id="textblock"><g><svg viewBox="0 0 213.726237359736 247.2" height="247.2" width="213.726237359736"><path d="M213.226 53.02C212.221 27.36 209.357 20.227 209.357 20.227 200.566-6.202 189.594-0.506 179.737 3.292 162.334 3.446 145.002 9.091 127.639 12.119 91.196 12.581 54.442 4.986 18.179 23.717 14.773 29.464-3.534 24.846 0.606 56.304 1.691 69.39 5.65 83.913 5.529 95.922 6.072 98.026 6.825 93.202 7.147 96.23 8.272 104.39 10.111 100.541 11.618 105.365 9.518 118.246 11.025 128.971 12.462 140.21 9.93 143.135 6.685 141.749 5.228 151.449 5.077 158.479 4.263 157.145 3.369 156.837 2.716 156.632 1.4 157.402 1.621 159.608 2.374 167.152-0.861 171.514 1.169 178.904-0.228 186.91 2.133 193.838 1.812 202.511 1.771 204.255 1.992 205.744 2.344 206.154 3.902 208.361 1.631 212.672 1.872 217.342 17.848 249.262 35.18 227.195 51.548 241.872 55.798 231.608 52.603 245.516 54.301 243.36 55.627 240.846 56.592 251.263 58.089 245.362 58.32 243.668 57.968 239.665 58.792 240.435 59.224 240.846 59.606 240.743 59.666 238.382 59.757 234.841 58.963 237.048 58.752 235.201 61.033 225.861 60.47 248.081 62.61 247.158 62.51 244.438 61.887 240.538 63.163 241.051 64.429 237.151 64.469 233.918 65.595 242.693 65.635 244.592 65.836 245.926 66.157 246.85 69.674 237.305 73.171 250.237 76.858 245.926 79.119 241.205 81.289 248.492 83.58 246.696 84.384 245.259 85.198 242.693 85.971 247.004 95.446 247.928 105.544 244.079 114.527 247.158 138.531 241.41 164.183 249.518 189.493 241.923 195.461 238.998 201.661 234.841 207.479 231.506 207.479 231.506 212.191 222.371 212.191 181.316S213.196 145.393 213.346 112.703C213.497 80.013 214.2 78.679 213.196 53.02Z" opacity="1" fill="#ff5858" data-fill-palette-color="tertiary"></path><g transform="matrix(1,0,0,1,55.76832000000001,26.230666666666668)"><svg width="102.18959735973597" viewBox="2.8 -35 18.55 35.35" height="194.73866666666666" data-palette-color="#ffffff"><path d="M17.35-9.15L17.35-35 21.35-35 21.35-9.15Q21.35-6.4 20.15-4.25 18.95-2.1 16.82-0.88 14.7 0.35 11.85 0.35L11.85 0.35Q8.25 0.35 5.95-1.48 3.65-3.3 2.8-6.5L2.8-6.5 6.25-7.75Q6.6-6.45 7.28-5.4 7.95-4.35 9.08-3.75 10.2-3.15 11.85-3.15L11.85-3.15Q13.8-3.15 15-4.05 16.2-4.95 16.78-6.33 17.35-7.7 17.35-9.15L17.35-9.15Z" opacity="1" transform="matrix(1,0,0,1,0,0)" fill="#ffffff" class="wordmark-text-0" data-fill-palette-color="quaternary" id="text-0"></path></svg></g></svg></g></svg></g></svg></g><g></g></svg></g><defs></defs></svg><rect width="213.726237359736" height="247.2" fill="none" stroke="none" visibility="hidden"></rect></g></svg></g></svg>